<svg id="Layer_1" data-name="Layer 1" xmlns="http://www.w3.org/2000/svg" viewBox="0 0 288 131"><defs><style>.cls-1{fill:#f8f9fa;}.cls-2{fill:#930df2;}</style></defs><path class="cls-1" d="M118.75,60.45h10.1v10.1h-10.1Zm0,20.2h10.1v10.1h-10.1ZM139,60.45h10.1v10.1H139Zm0,20.2h10.1v10.1H139Zm20.2-20.2h10.1v10.1h-10.1Zm0,20.2h10.1v10.1h-10.1Z"/><path class="cls-1" d="M108.65,116h70.7a10.11,10.11,0,0,0,10.1-10.1V35.2a10.11,10.11,0,0,0-10.1-10.1h-10.1V15h-10.1V25.1h-30.3V15h-10.1V25.1h-10.1a10.11,10.11,0,0,0-10.1,10.1v70.7A10.11,10.11,0,0,0,108.65,116Zm70.7-70.7v60.6H108.65V45.3Z"/><rect class="cls-2" x="118.75" y="60.45" width="10.1" height="10.1"/><rect class="cls-2" x="159.15" y="80.65" width="10.1" height="10.1"/></svg>