<svg id="Layer_1" data-name="Layer 1" xmlns="http://www.w3.org/2000/svg" viewBox="0 0 288 131"><defs><style>.cls-1{fill:#343a40;}</style></defs><path class="cls-1" d="M208.82,107.94l-59.35-41.4a38.15,38.15,0,0,0,2.69-6.75,37.25,37.25,0,0,0-25.52-46h0a37.2,37.2,0,1,0,7.79,68.3,35.88,35.88,0,0,0,5.12-3.41c.69-.54,1.36-1.12,2-1.71l59.79,41.71Zm-80.3-36.53a25,25,0,1,1-5.24-45.91h0a25,25,0,0,1,5.24,45.9Z"/><path class="cls-1" d="M134,39.64a20.41,20.41,0,0,0-6.79-5.49,14.36,14.36,0,0,0-2-.82,13.4,13.4,0,0,0-2-.61A27.13,27.13,0,0,0,119,32.2l0,.41,1.94.62a9,9,0,0,1,1.88.68,12.73,12.73,0,0,1,1.76.91,12.9,12.9,0,0,1,1.64,1.08,17.88,17.88,0,0,1,5.16,5.6c1.29,2.2,1.73,4.65,2.47,7a56.09,56.09,0,0,1,1.58,7.72l.39.1a12.49,12.49,0,0,0,2-8.57C137.51,44.65,135.8,42,134,39.64Z"/><path class="cls-1" d="M101.17,61.32a18.58,18.58,0,0,1-3.21-6,13.71,13.71,0,0,1-.45-1.67A9.91,9.91,0,0,1,97.19,52c-.24-1.17-.12-2.34-.27-3.58A17.38,17.38,0,0,0,96.19,52a13.44,13.44,0,0,0,.24,3.74,15.53,15.53,0,0,0,3.15,6.84,16.07,16.07,0,0,0,6,4.59,13.79,13.79,0,0,0,7.27,1.13A20.1,20.1,0,0,1,101.17,61.32Z"/></svg>